<?xml version="1.0" encoding="utf-8"?>
<!-- Generator: Adobe Illustrator 24.2.3, SVG Export Plug-In . SVG Version: 6.00 Build 0)  -->
<svg version="1.1" id="_x32_" xmlns="http://www.w3.org/2000/svg" xmlns:xlink="http://www.w3.org/1999/xlink" x="0px" y="0px"
	 viewBox="0 0 207.9 283.5" style="enable-background:new 0 0 207.9 283.5;" xml:space="preserve">
<style type="text/css">
	.st0{fill:#6B6B6B;}
</style>
<g>
	<path class="st0" d="M104,66.5L42.5,7.1c-7.2-7-18-9-27.2-5.1C6,5.9,0,15,0,25.1v151.7c0,10.2,4.1,19.9,11.5,27l75.1,72.6
		c9.7,9.4,25.2,9.4,34.9,0l75.1-72.6c7.3-7.1,11.5-16.9,11.5-27V25.1c0-10.1-6-19.2-15.3-23.1c-9.3-3.9-20-1.9-27.2,5.1L104,66.5z
		 M172.5,172.4c0,3.4-1.4,6.7-3.8,9L104,244V115.7l12.3-11.9l45.6-44.1c1.8-1.7,4.5-2.2,6.8-1.3c2.3,1,3.8,3.3,3.8,5.8V172.4z"/>
</g>
</svg>
