<?xml version="1.0" encoding="utf-8"?>
<!-- Generator: Adobe Illustrator 24.2.3, SVG Export Plug-In . SVG Version: 6.00 Build 0)  -->
<svg version="1.1" id="_x31_0" xmlns="http://www.w3.org/2000/svg" xmlns:xlink="http://www.w3.org/1999/xlink" x="0px" y="0px"
	 viewBox="0 0 128 102.6" style="enable-background:new 0 0 128 102.6;" xml:space="preserve">
<style type="text/css">
	.st0{fill:#361717;}
</style>
<g>
	<path class="st0" d="M128,42.5c0-4.8-1-9-2.8-12.4c-0.1-2-0.8-4-1.9-5.6c1.3-1.8,1.9-3.9,1.9-6.1v-7.6c0-5.9-4.8-10.6-10.6-10.6
		H13.5C7.6,0,2.8,4.8,2.8,10.6v7.6c0,2.2,0.7,4.4,1.9,6.1c-1.2,1.6-1.8,3.6-1.9,5.6C1,33.5,0,37.7,0,42.5c0,8.4,1.1,17.6,9.4,27.4
		c1,1.2,2.1,2.4,3.2,3.4c-0.1,0.7-0.1,1.3,0,2l0.9,12.4c0.5,6.3,5.8,11.3,12.2,11.3h5.3c6.4,0,11.7-5,12.2-11.3l0.2-2.5l0-0.1
		c0.9,0.1,1.8,0.2,2.7,0.3c0.6,0.1,1.3,0.1,1.9,0.2l0.6,4c1.2,7.8,7.2,12.9,15.4,12.9c8.2,0,14.3-5.1,15.4-12.9
		c0.1-0.7,0.2-1.5,0.4-2.5l0.1-0.4c0.1-0.4,0.1-0.8,0.2-1.2c0.7-0.1,1.3-0.1,1.9-0.2l0.2,0c0.8-0.1,1.6-0.2,2.4-0.3l0,0l0.2,2.6
		c0.5,6.3,5.8,11.3,12.2,11.3h5.2c6.4,0,11.7-5,12.2-11.3l0.9-12.4c0-0.7,0-1.3,0-2c1.1-1.1,2.2-2.2,3.2-3.4
		C126.9,60.1,128,50.9,128,42.5z M13.5,10.6h101.1v7.6l-7.9,2.5v0.4H21.4v-0.4l-7.9-2.5V10.6z M13.5,30.6l7.9-3.3v-4h85.1h0.2v4
		l7.9,3.3v1.5H13.5V30.6z M32.5,87c-0.1,0.8-0.7,1.5-1.6,1.5h-5.3c-0.8,0-1.5-0.6-1.6-1.5l-0.7-9.4c3.1,1.5,6.2,2.5,9.6,3.2L32.5,87
		z M103.9,87c-0.1,0.8-0.8,1.5-1.6,1.5h-5.2c-0.8,0-1.5-0.6-1.6-1.5L95,80.8c3.4-0.7,6.5-1.7,9.6-3.2L103.9,87z M110.5,63.1
		c-1,1.1-1.9,2.1-2.9,3.1c-5.9,5.5-12.2,7-20.8,8.1c-3,0.4-6.2,0.7-9.8,1.1c-3.6,0.4-6.6,3.2-7.1,6.8c-0.4,2.4-0.7,4.6-0.9,6
		C68.5,90.8,67,92,64,92c-3,0-4.5-1.2-4.9-3.8c-0.2-1.4-0.6-3.6-0.9-6c-0.6-3.6-3.5-6.4-7.1-6.8c-3.6-0.4-6.8-0.7-9.8-1.1
		c-8.6-1.1-14.9-2.6-20.8-8.1c-1-0.9-1.9-1.9-2.9-3.1c-6-7.1-6.9-13.7-6.9-20.6c0-4.8,1.3-7.2,2.2-8.3h102.4
		c0.8,1.1,2.2,3.5,2.2,8.3C117.4,49.4,116.4,55.9,110.5,63.1z"/>
</g>
</svg>
