<?xml version="1.0" encoding="utf-8"?>
<!-- Generator: Adobe Illustrator 24.2.3, SVG Export Plug-In . SVG Version: 6.00 Build 0)  -->
<svg version="1.1" id="Layer_1" xmlns="http://www.w3.org/2000/svg" xmlns:xlink="http://www.w3.org/1999/xlink" x="0px" y="0px"
	 viewBox="0 0 281.8 315" style="enable-background:new 0 0 281.8 315;" xml:space="preserve">
<style type="text/css">
	.st0{fill:#26383F;}
</style>
<g>
	<path class="st0" d="M207.4,270.9c-1.4,0.2-2.7,1.1-3.4,2.4c-0.7,1.3-0.8,2.8-0.2,4.2l6.3,14.5c1.9,4.4-0.1,9.6-4.5,11.6l-2.9,1.2
		c-2.1,0.9-4.5,1-6.7,0.1c-2.2-0.9-3.9-2.5-4.9-4.7L181,276.8c-0.8-1.8-2.6-2.9-4.6-2.8c-9.5,0.5-19.4,0.8-28.9,1c-2,0-4,0.1-6,0.2
		c-4.1,0.1-7.2,0.2-10.1,0.3l-10.1-0.3c-2,0-4-0.1-6-0.2c-9.5-0.2-19.4-0.5-28.9-1c-2-0.1-3.8,1-4.6,2.8l-10.3,23.5
		c-0.9,2.1-2.7,3.8-4.9,4.7c-2.2,0.9-4.6,0.8-6.7-0.1l-2.9-1.2c-2.1-0.9-3.8-2.7-4.7-4.9c-0.9-2.2-0.8-4.6,0.1-6.7l6.3-14.5
		c0.6-1.3,0.5-2.9-0.2-4.2c-0.7-1.3-2-2.2-3.4-2.4c-27.5-4.4-41.8-13.3-45.2-28c-3.9-16.8,13.6-57.3,33.6-90.3
		c2.3,1.3,4.9,2.2,7.6,2.7c0.1,0,0.1,0,0.2,0c1.4,0.2,2.7,0.4,4.1,0.4H207c3.8,0,7.5-0.9,10.7-2.4c20.2,31.3,39.1,71.5,34.9,89.7
		C249.3,257.6,234.9,266.5,207.4,270.9L207.4,270.9z M55.6,115.5h11.1c0,0,0,0,0,0h28.3c0,0,0,0,0,0s0,0,0,0h78.5c0,0,0,0,0,0
		s0,0,0,0h3.2c0,0,0,0,0,0s0,0,0,0h30c8.5,0,15.3,6.9,15.3,15.3s-6.9,15.3-15.3,15.3H55.6c-3.9,0-7.4-1.4-10.1-3.8
		c0,0-0.1-0.1-0.1-0.1c-3.1-2.8-5.1-6.9-5.1-11.4C40.3,122.4,47.2,115.5,55.6,115.5L55.6,115.5z M61.7,31.6
		c-0.2-0.6-0.3-1.3-0.3-1.9c0-3,2-5.6,4.9-6.5c3.6-1,7.3,1,8.4,4.6L84,59.5l-8.6,19.8L61.7,31.6L61.7,31.6z M93.3,61.7
		C93.3,61.7,93.3,61.7,93.3,61.7l11.8-27c1.1-2.5,3.5-4.1,6.2-4.1c0.9,0,1.8,0.2,2.7,0.6c1.6,0.7,2.9,2.1,3.6,3.7
		c0.7,1.7,0.6,3.5-0.1,5.2c0,0.1,0,0.1-0.1,0.2l-25.6,65.8H74l4.7-10.8c0,0,0-0.1,0-0.1L93.3,61.7L93.3,61.7z M138.3,53.3
		C138.3,53.3,138.3,53.3,138.3,53.3c-0.2-0.7-0.3-1.3-0.3-2c0-3,2-5.6,4.9-6.5c3.6-1,7.3,1,8.4,4.6l16.2,56.7h-14.6L138.3,53.3
		L138.3,53.3z M207.2,37.5c0-0.1,0-0.1,0.1-0.2c1-3.6,4.8-5.6,8.4-4.6c2.9,0.8,4.9,3.5,4.9,6.5c0,0.6-0.1,1.3-0.3,1.9c0,0,0,0,0,0.1
		l-18.3,65h-18.3L207.2,37.5L207.2,37.5z M261.9,245c6.4-27.8-26.8-82.2-36.5-97.4c4-4.4,6.5-10.3,6.5-16.7
		c0-12.1-8.7-22.2-20.2-24.4l17.7-62.8c0.4-1.5,0.6-3,0.6-4.5c0-7.2-4.8-13.6-11.7-15.6c-8.5-2.5-17.5,2.4-20.1,10.9l-22.6,65.8
		l-15.3-53.5c-2.5-8.6-11.5-13.5-20.1-11c-6.9,2-11.7,8.4-11.7,15.6c0,1.5,0.2,3,0.6,4.5l13.8,50.2h-41l24.2-62.3
		c1.7-3.9,1.8-8.3,0.2-12.3c-1.6-4-4.6-7.2-8.6-9c-2.1-0.9-4.3-1.4-6.5-1.4c-6.4,0-12.3,3.8-14.9,9.7L89.8,46l-6.1-20.8
		c-2.5-8.6-11.5-13.5-20.1-11c-6.9,2-11.7,8.4-11.7,15.6c0,1.5,0.2,3.1,0.6,4.5L69.3,93l-5.7,13.1h-8.1c-13.7,0-24.8,11.1-24.8,24.8
		c0,5.9,2.1,11.3,5.5,15.5c-9.8,16-19,33.9-25.4,49.4c-9.1,22-12.5,38.6-10.1,49.2c2.4,10.2,8.7,18.5,19,24.5
		c7.2,4.2,16.4,7.4,28,9.7l-3.9,9c-2,4.5-2,9.4-0.3,14s5.2,8.1,9.7,10.1l2.9,1.2c4.5,2,9.4,2,14,0.3s8.1-5.2,10.1-9.7l9-20.5
		c8.6,0.4,17.4,0.6,25.9,0.8c2,0,4,0.1,6,0.1l10.2,0.3c0,0,0.1,0,0.1,0h0.1c0,0,0.1,0,0.2,0c2.9-0.1,6-0.2,10.2-0.3c2,0,4-0.1,6-0.1
		c8.5-0.2,17.3-0.4,25.9-0.8l9,20.5c2,4.5,5.5,7.9,10.1,9.7c2.2,0.9,4.4,1.3,6.7,1.3c2.5,0,5-0.5,7.3-1.5l2.9-1.2
		c9.2-4,13.5-14.8,9.4-24l-3.9-9c11.5-2.3,20.7-5.5,28-9.7C253.1,263.5,259.5,255.3,261.9,245L261.9,245z"/>
	<path class="st0" d="M281.7,6.5c0.3-2.6-1.5-5-4.1-5.3c-2.6-0.3-5,1.5-5.3,4.1c0,0.1-1.9,14.1-14.5,23.1
		c-19,13.7-17.6,30.2-17.5,30.9c0.2,2.4,2.3,4.2,4.7,4.2c0.2,0,0.3,0,0.5,0c2.6-0.3,4.5-2.6,4.2-5.1c0-0.6-0.6-12.1,13.6-22.3
		C279.3,24.7,281.6,7.3,281.7,6.5L281.7,6.5z"/>
	<path class="st0" d="M21.7,36.2c10.3,7.4,12.8,15.5,13.4,19.7c0.3,2.4,2.4,4.1,4.7,4.1c0.2,0,0.5,0,0.7-0.1c2.6-0.4,4.4-2.8,4-5.4
		c-0.8-5.6-4.2-16.5-17.3-26c-12.6-9.1-14.5-23-14.5-23.1C12.4,2.8,10,0.9,7.4,1.3C4.8,1.6,3,3.9,3.3,6.5
		C3.4,7.3,5.7,24.7,21.7,36.2L21.7,36.2z"/>
	<path class="st0" d="M157.7,28.1c12.5,9,16.4,19.3,17.4,26.3c0.4,2.4,2.4,4.1,4.7,4.1c0.2,0,0.5,0,0.7-0.1c2.6-0.4,4.4-2.8,4-5.4
		c-1.1-7.2-5.2-21.1-21.2-32.6c-8.9-6.4-10.5-16.3-10.5-16.4c-0.4-2.6-2.8-4.4-5.3-4s-4.4,2.8-4,5.3
		C143.5,5.9,145.4,19.3,157.7,28.1L157.7,28.1z"/>
</g>
</svg>
