<?xml version="1.0" encoding="utf-8"?>
<!-- Generator: Adobe Illustrator 24.2.3, SVG Export Plug-In . SVG Version: 6.00 Build 0)  -->
<svg version="1.1" id="_x31_0" xmlns="http://www.w3.org/2000/svg" xmlns:xlink="http://www.w3.org/1999/xlink" x="0px" y="0px"
	 viewBox="0 0 81.4 128" style="enable-background:new 0 0 81.4 128;" xml:space="preserve">
<style type="text/css">
	.st0{fill:#361717;}
</style>
<g>
	<path class="st0" d="M73.6,0H7.8L0,7.8v112.5l7.8,7.8h65.8l7.8-7.8V7.8L73.6,0z M70.7,117v0.3H10.7V10.7h59.9L70.7,117L70.7,117z"
		/>
	<path class="st0" d="M18.3,79.9h0.6v30.8c0,0.5,0.5,1,1,1h2.9c0.5,0,1-0.4,1-1V79.9h2.8v30.8c0,0.5,0.5,1,1,1h2.9c0.5,0,1-0.4,1-1
		V79.9h2.8v30.8c0,0.5,0.5,1,1,1h2.9c0.5,0,1-0.4,1-1V79.9h2.8v30.8c0,0.5,0.5,1,1,1H46c0.5,0,1-0.4,1-1V79.9h2.8v30.8
		c0,0.5,0.5,1,1,1h2.9c0.5,0,1-0.4,1-1V79.9h2.8v30.8c0,0.5,0.5,1,1,1h2.9c0.5,0,1-0.4,1-1V79.9h0.6c2.1,0,3.7-1.7,3.7-3.7V51.8
		c0-2.1-1.7-3.7-3.7-3.7h-0.6V17.3c0-0.5-0.4-1-0.9-1c0,0,0,0,0,0h-2.9c0,0,0,0,0,0c-0.5,0-1,0.5-1,1V48v0.1h-2.8V17.3
		c0-0.5-0.4-1-0.9-1c0,0,0,0,0,0h-2.9c0,0,0,0,0,0c-0.5,0-1,0.5-1,1V48v0.1H47V17.3c0-0.5-0.4-1-0.9-1c0,0,0,0,0,0h-2.9c0,0,0,0,0,0
		c-0.5,0-1,0.5-1,1V48v0.1h-2.8V17.3c0-0.5-0.4-1-0.9-1c0,0,0,0,0,0h-2.9c0,0,0,0,0,0c-0.5,0-1,0.5-1,1V48l0,0.1h-2.8V17.3
		c0-0.5-0.4-1-0.9-1c0,0,0,0,0,0h-2.9c0,0,0,0,0,0c-0.5,0-1,0.5-1,1V48v0.1h-2.8V17.3c0-0.5-0.4-1-0.9-1c0,0,0,0,0,0h-2.9
		c0,0,0,0,0,0c-0.5,0-1,0.5-1,1v30.8h-0.6c-2.1,0-3.7,1.7-3.7,3.7v24.4C14.6,78.3,16.2,79.9,18.3,79.9z M16.7,51.8
		c0-0.8,0.7-1.5,1.6-1.5h0.6h4.9h2.8h4.9h2.8h4.9h2.8H47h2.8h4.9h2.8h4.9h0.6c0.9,0,1.6,0.7,1.6,1.5v1.1h-2.2h-4.9h-2.8h-4.9H47
		h-4.9h-2.8h-4.9h-2.8h-4.9h-2.8h-4.9h-2.1L16.7,51.8L16.7,51.8z M16.7,55.1h2.1h4.9h2.8h4.9h2.8h4.9h2.8H47h2.8h4.9h2.8h4.9h2.2
		v17.8h-2.2h-4.9h-2.8h-4.9H47h-4.9h-2.8h-4.9h-2.8h-4.9h-2.8h-4.9h-2.1L16.7,55.1L16.7,55.1z M16.7,75.1h2.1h4.9h2.8h4.9h2.8h4.9
		h2.8H47h2.8h4.9h2.8h4.9h2.2v1.1c0,0.9-0.7,1.5-1.6,1.5h-0.6h-4.9h-2.8h-4.9H47h-4.9h-2.8h-4.9h-2.8h-4.9h-2.8h-4.9h-0.6
		c-0.9,0-1.6-0.7-1.6-1.5L16.7,75.1L16.7,75.1z"/>
	<path class="st0" d="M21.9,65.5l1.9-1.1l2.8-1.7l3.2-1.9c1.3-0.8,0.7-2.7-0.7-2.7h-2.5h-2.8h-2.7c-0.8,0-1.5,0.6-1.5,1.4v4.7
		C19.7,65.4,20.9,66.1,21.9,65.5z"/>
</g>
</svg>
