<?xml version="1.0" encoding="utf-8"?>
<!-- Generator: Adobe Illustrator 24.2.3, SVG Export Plug-In . SVG Version: 6.00 Build 0)  -->
<svg version="1.1" id="_x31_0" xmlns="http://www.w3.org/2000/svg" xmlns:xlink="http://www.w3.org/1999/xlink" x="0px" y="0px"
	 viewBox="0 0 128 105" style="enable-background:new 0 0 128 105;" xml:space="preserve">
<style type="text/css">
	.st0{fill:#361717;}
</style>
<g>
	<path class="st0" d="M127.9,99.6C128,99.6,127.9,99.5,127.9,99.6L127.9,99.6z"/>
	<path class="st0" d="M0.4,0.7c-1.1,1.6,0.1,5.6,0.4,7.5C1,9.6,1.3,11,1.5,12.4c0,0,0,0.1,0,0.1c0.3,1.5,0.5,2.9,0.7,4.3
		c1.3,7.1,2.8,14.1,4.7,21c1.2,4.4,2.6,8.9,4.1,13.3c0.1,0.2,0.1,0.3,0.2,0.5c0.6,1.6,1.2,3.3,1.8,4.9c0.4,1.1,0.9,2.1,1.3,3.2
		c0.4,0.8,0.7,1.7,1.1,2.5c0.4,0.9,0.8,1.7,1.2,2.5c0.5,1.1,1,2.1,1.6,3.1c0.3,0.6,0.7,1.2,1,1.8c0.7,1.2,1.4,2.4,2.1,3.6
		c0.3,0.5,0.7,1.1,1,1.6c0.8,1.2,1.6,2.4,2.4,3.5c0.4,0.6,0.8,1.1,1.2,1.6s0.8,1.1,1.3,1.7c2.3,2.8,4.9,5.4,7.8,7.7
		c4.5,3.5,9.5,6.1,14.9,8.1h0c1,0.3,2.1,0.7,3.1,1c0.1,0,0.2,0.1,0.2,0.1c1,0.3,2,0.6,3,0.8c0.1,0,0.1,0,0.2,0.1
		c1,0.2,2.1,0.5,3.1,0.7l0,0c8.1,1.6,16.4,2,24.2,1.6c5.1-0.3,10-1.1,15-1.8c2-0.3,3.7,0.3,5.6,0.9c2.9,0.9,5.8,1.7,8.7,2.4
		c2.2,0.6,4.3,1.1,6.5,1.6c2,0.4,3.9,0.8,5.8-0.3c1.2-0.7,2.9-2.7,2.6-4.3c-0.1-0.3-0.1-0.4,0-0.4c0,0-0.1,0-0.2-0.1
		c-0.2-0.2-1.1-0.2-1.3-0.2c-16.8-3.2-33.5-8.6-48.9-16.1C69,78.9,60.8,74,53.4,68c-3.8-3.1-7.3-6.4-10.5-10.1
		c-0.2-0.3-1.8-1.7-1.7-2c0.2-0.9,2.4-0.9,3-0.7c1.2,0.4,2.2,1.5,3.1,2.3c1.3,1.1,2.6,2.2,4,3.3c8.5,6.7,17.9,12.3,27.9,16.4
		c5,2,10.1,3.7,15.3,5.1c2.2,0.6,4.5,1.1,6.7,1.6c2,0.4,5.9,2.1,7.4-0.1c0.8-1.3,0.3-3.5,0.2-5c-0.1-1.9-0.2-3.8-0.4-5.6
		c-0.1-1-0.2-2.1-0.4-3.1l0,0c-0.2-1.8-0.5-3.6-0.8-5.4c-0.1-0.3-0.1-0.6-0.2-0.9c-0.2-0.8-0.2-1.6-0.4-2.4
		c-1.9-8.9-5.2-17.4-10.3-25c-5.4-8-12.6-14.5-21.3-18.8c-8.4-4.2-17.7-6.5-26.9-8C39.8,8.1,31.4,7.4,23,6.4
		C18.3,5.9,13.7,5,9.3,3.3C7.7,2.6,6.1,1.9,4.5,1.1C3.3,0.5,1.5-0.8,0.4,0.7z"/>
</g>
</svg>
