<?xml version="1.0" encoding="utf-8"?>
<!-- Generator: Adobe Illustrator 24.2.3, SVG Export Plug-In . SVG Version: 6.00 Build 0)  -->
<svg version="1.1" id="Layer_1" xmlns="http://www.w3.org/2000/svg" xmlns:xlink="http://www.w3.org/1999/xlink" x="0px" y="0px"
	 viewBox="0 0 128 128" style="enable-background:new 0 0 128 128;" xml:space="preserve">
<style type="text/css">
	.st0{fill:#361717;}
</style>
<g id="NewGroupe1_4_">
	<g id="NewGroup4-7">
		<g>
			<polygon class="st0" points="108.5,51 118.6,51 118.6,41.1 108.5,41.1 			"/>
			<path class="st0" d="M118,105.8v2.3c0,5.5-4.5,10-10,10H20c-5.5,0-10-4.5-10-10v-2.3H118L118,105.8z M51.9,75.1
				c14.3-14.5,37-34.9,64.3-49.3l-4.7-8.8C83,31.9,59.4,53,44.7,68.1c-12.7,12.9-21,23.5-24.2,27.7H0v12.3c0,11,9,19.9,20,19.9h88
				c11.1,0,20-9,20-20V95.8H33.3C37.5,90.6,43.8,83.3,51.9,75.1L51.9,75.1z"/>
			<path class="st0" d="M20.4,41.5L20.4,41.5c14.8-0.1,26.2-9.8,36.3-18.4C64.6,16.4,72.1,10,79.1,10c1.3,0,2.4,1.2,2.4,2.6h10
				C91.6,5.7,86,0,79.1,0C68.4,0.1,59.6,7.6,50.3,15.6c-9.2,7.8-18.7,15.9-29.8,16c-5.8,0-10.5-4.8-10.5-10.7s4.9-10.7,10.8-10.7
				V0.1C15.2,0.1,10,2.3,6.1,6.2C2.2,10.2,0,15.4,0,20.8C0,32.2,9.1,41.5,20.4,41.5L20.4,41.5z"/>
			<polygon class="st0" points="108.5,71.1 118.6,71.1 118.6,61 108.5,61 			"/>
		</g>
	</g>
</g>
</svg>
