<?xml version="1.0" encoding="utf-8"?>
<!-- Generator: Adobe Illustrator 24.2.3, SVG Export Plug-In . SVG Version: 6.00 Build 0)  -->
<svg version="1.1" id="_x31_0" xmlns="http://www.w3.org/2000/svg" xmlns:xlink="http://www.w3.org/1999/xlink" x="0px" y="0px"
	 viewBox="0 0 102.5 128" style="enable-background:new 0 0 102.5 128;" xml:space="preserve">
<style type="text/css">
	.st0{fill:#361717;}
</style>
<path class="st0" d="M51.2,128c-22.2,0-34.4-8.5-40.7-15.7C2.3,103-1.3,90.4,0.4,76.6c2.2-17.6,16.7-38,29.9-49L26.1,20L18.6,6.5
	C18,5.4,18,4.1,18.7,3c0.6-1.1,1.8-1.7,3-1.7c0.3,0,0.5,0,0.7,0.1l15.9,3.3L44.9,0l7.3,3.2L59.6,0l6.5,4.7L67,4.5L82,1.4
	c0.3-0.1,0.5-0.1,0.7-0.1c1.2,0,2.4,0.7,3,1.7s0.7,2.4,0,3.4L74.1,27.5l-0.6,1.2c12.2,10.7,26.4,30.2,28.5,47.9
	c1.7,13.8-1.9,26.4-10.1,35.7c-6.2,7-18.1,15.4-39.8,15.7L51.2,128L51.2,128z M42.4,32.8c-1,0-1.9,0.3-2.6,0.8
	c-12.4,9.1-27,28.6-28.9,44.3c-1.3,10.7,1.4,20.5,7.5,27.4c7,7.9,18.4,12.1,32.9,12.1c0.4,0,0.7,0,1,0c14.1-0.2,25.1-4.4,32-12.3
	c6.1-7,8.7-16.6,7.4-27.3c-1.9-15.7-16.5-35.3-29-44.3c-0.8-0.6-1.7-0.8-2.6-0.8L42.4,32.8L42.4,32.8z M41.2,25.4
	c0.8,1.4,2.3,2.3,3.9,2.3h14.3c1.6,0,3.1-0.9,3.9-2.3l5.9-10.6l-5.4,1.1l-5.4-3.9l-6.1,2.7l-6.1-2.7l-5.5,3.9l-5.4-1.2L41.2,25.4z"
	/>
</svg>
