<?xml version="1.0" encoding="utf-8"?>
<!-- Generator: Adobe Illustrator 24.2.3, SVG Export Plug-In . SVG Version: 6.00 Build 0)  -->
<svg version="1.1" id="_x31_0" xmlns="http://www.w3.org/2000/svg" xmlns:xlink="http://www.w3.org/1999/xlink" x="0px" y="0px"
	 viewBox="0 0 128 125.9" style="enable-background:new 0 0 128 125.9;" xml:space="preserve">
<style type="text/css">
	.st0{fill:#361717;}
</style>
<g>
	<path class="st0" d="M120.2,35.1l1.2-1.2l1.6-0.4l1.7-0.4l0.4-1.7l0.4-1.6l1.2-1.2l1.3-1.2l-0.5-1.7l-0.4-1.6l0.4-1.6l0.5-1.7
		l-1.3-1.2l-1.2-1.2l-0.4-1.6l-0.4-1.7l-1.7-0.4l-1.6-0.4l-1.2-1.2l-1.2-1.3l-1.7,0.5l-1.6,0.4l-1.6-0.4l-1.7-0.5l-1.2,1.3l-1.2,1.2
		l-0.6,0.1L94.2,1.6c-2.7-2.3-6.7-2.1-9.2,0.4l-4.3,4.3l-7,6.9l0,0L1.7,85.1c-2.3,2.3-2.3,5.9,0,8.2l30.9,30.9
		c2.3,2.3,5.9,2.3,8.2,0l71.8-71.8l0.2-0.2l0,0l0,0l-4.9-4.9l3.4-3.4l9.6,5.2c0.6,0.3,1.2,0.4,1.8,0.4c0,0,0.1,0,0.1,0l0,0
		c0,0,0.1,0,0.1,0c0.7,0,1.4-0.2,2.1-0.6c0,0,0.1-0.1,0.1-0.1c0.2-0.1,0.4-0.2,0.5-0.4c0.1-0.1,0.3-0.3,0.4-0.5
		c1.2-1.6,1-3.8-0.4-5.2l-4-3.5l-3.5-3.1l1.1,0.3L120.2,35.1z M44.7,112.5l-7.5-7.5l0,0l60.2-60.2l7.5,7.5l-60.1,60.1L44.7,112.5z
		 M115.1,25.7c0.5-1.1,0.7-2.2,0.6-3.4c0.4,0,0.8,0.2,1.1,0.5c0.7,0.7,0.7,1.8,0,2.5C116.4,25.7,115.7,25.9,115.1,25.7
		C115.1,25.7,115.1,25.7,115.1,25.7z M101,32.6l-3.8,3.7l0,0l-0.6-0.6l-5.1-5.1L77.8,16.9l11-11c0.5-0.5,1.3-0.5,1.8-0.1l15,12.5
		l1.2,1l1.2,1l1.8,1.5c0,0,0.1,0.1,0.1,0.1c0.5,0.5,0.5,1.4,0,1.9l-2.9,2.9l0,0l-1.1,1.1l-1.1,1.1l-0.7,0.7L101,32.6z M36.4,120.3
		l-7.3-7.3l5.9-5.9l7.5,7.5l-5.7,5.7C36.8,120.4,36.6,120.4,36.4,120.3z M35.3,102.6l-0.2,0.2L13.4,81.2l0,0l60.2-60.2l21.7,21.7
		L35.3,102.6z M5.6,89l5.7-5.7l21.7,21.7l-5.9,5.9L5.6,89.4C5.5,89.3,5.5,89.1,5.6,89z M110.4,30.9l0.7-0.7l2.6-2.6
		c0.3-0.3,0.6-0.7,0.9-1.1c1,0.4,2.2,0.2,3-0.6c1.1-1.1,1.1-2.8,0-3.9c-0.6-0.6-1.3-0.8-2-0.8c-0.3-1.2-0.9-2.4-1.8-3.3l0,0
		c-0.1-0.1-0.3-0.3-0.5-0.4l-1.3-1.1l-0.1-0.1l1.3-1.4l2.4,0.7L118,15l1.8,1.8l2.4,0.6l0.6,2.4l1.8,1.8l-0.7,2.4l0.7,2.4l-1.8,1.8
		l-0.6,2.4l-2.4,0.6L118,33l-2.4-0.7l-1.6,0.5l-0.8,0.2l-1.8-1.8l-0.7-0.2L110.4,30.9z"/>
	<polygon class="st0" points="94.7,24.7 92.8,26.6 94.1,27.9 97.2,31 99.1,29.1 96,26.1 	"/>
</g>
</svg>
