<?xml version="1.0" encoding="utf-8"?>
<!-- Generator: Adobe Illustrator 24.2.3, SVG Export Plug-In . SVG Version: 6.00 Build 0)  -->
<svg version="1.1" id="_x32_" xmlns="http://www.w3.org/2000/svg" xmlns:xlink="http://www.w3.org/1999/xlink" x="0px" y="0px"
	 viewBox="0 0 128 128" style="enable-background:new 0 0 128 128;" xml:space="preserve">
<style type="text/css">
	.st0{fill:#361717;}
</style>
<g>
	<path class="st0" d="M64,0C28.7,0,0,28.7,0,64c0,35.4,28.7,64,64,64s64-28.7,64-64S99.3,0,64,0z M101.2,101.2
		c-9.5,9.5-22.7,15.4-37.2,15.4c-14.6,0-27.7-5.9-37.2-15.4C17.2,91.7,11.3,78.6,11.3,64s5.9-27.7,15.4-37.2s22.7-15.4,37.2-15.4
		c14.6,0,27.7,5.9,37.2,15.4s15.4,22.7,15.4,37.2C116.7,78.6,110.8,91.7,101.2,101.2z"/>
	<path class="st0" d="M28.4,64c0,6.5,1.8,12.6,4.8,17.9l5.6-3.3c-2.5-4.3-4-9.3-4-14.6c0-8.1,3.3-15.3,8.5-20.6
		c5.3-5.3,12.6-8.5,20.6-8.5c5.3,0,10.3,1.5,14.6,4l3.3-5.6c-5.2-3.1-11.4-4.8-17.9-4.8C44.3,28.4,28.4,44.3,28.4,64z"/>
</g>
</svg>
