<?xml version="1.0" encoding="utf-8"?>
<!-- Generator: Adobe Illustrator 24.2.3, SVG Export Plug-In . SVG Version: 6.00 Build 0)  -->
<svg version="1.1" id="レイヤー_1" xmlns="http://www.w3.org/2000/svg" xmlns:xlink="http://www.w3.org/1999/xlink" x="0px"
	 y="0px" viewBox="0 0 600 400" style="enable-background:new 0 0 600 400;" xml:space="preserve">
<style type="text/css">
	.st0{clip-path:url(#SVGID_2_);}
	.st1{fill:#C9C9C9;}
	.st2{clip-path:url(#SVGID_2_);fill:#C9C9C9;}
	.st3{clip-path:url(#SVGID_2_);fill:none;stroke:#231815;stroke-width:4;stroke-miterlimit:10;}
	.st4{stroke:#000000;stroke-width:0.3;stroke-miterlimit:10;}
	.st5{font-family:'TsukuARdGothic-Regular-83pv-RKSJ-H';}
	.st6{font-size:28.8px;}
	.st7{fill:#FFFFFF;}
	.st8{stroke:#000000;stroke-width:0.25;stroke-miterlimit:10;}
	.st9{font-size:26px;}
	.st10{clip-path:url(#SVGID_2_);fill:none;stroke:#000000;stroke-width:3;stroke-miterlimit:10;}
	.st11{clip-path:url(#SVGID_2_);fill:none;stroke:#231815;stroke-width:4.8;stroke-miterlimit:10;stroke-dasharray:10.8;}
	
		.st12{clip-path:url(#SVGID_2_);fill:none;stroke:#424242;stroke-width:7;stroke-linecap:round;stroke-linejoin:round;stroke-miterlimit:10;}
	.st13{fill:none;}
	.st14{clip-path:url(#SVGID_2_);fill:#98C143;stroke:#98C143;stroke-width:1.5;stroke-miterlimit:10;}
	.st15{clip-path:url(#SVGID_2_);fill:#FFFFFF;}
	.st16{clip-path:url(#SVGID_2_);fill:#EEEEEE;}
	.st17{fill:none;stroke:#000000;stroke-width:9;stroke-miterlimit:10;}
	.st18{fill:none;stroke:#FFFFFF;stroke-width:6.12;stroke-miterlimit:10;}
	.st19{fill:none;stroke:#000000;stroke-width:6.12;stroke-miterlimit:10;}
	.st20{fill:none;stroke:#000000;stroke-width:6.12;stroke-miterlimit:10;stroke-dasharray:18.1811,18.1811;}
	.st21{fill:#231815;stroke:#FFFFFF;stroke-width:6;stroke-miterlimit:10;}
	.st22{font-size:31.2px;}
</style>
<g>
	<defs>
		<rect id="SVGID_1_" width="600" height="400"/>
	</defs>
	<clipPath id="SVGID_2_">
		<use xlink:href="#SVGID_1_"  style="overflow:visible;"/>
	</clipPath>
	<g class="st0">
		<path class="st1" d="M150,339.02c0,0,17.29-9.41,19.79-10.85c2.5-1.44,18.34-9.51,19.31-9.99s16.9-8.07,16.9-8.07l16.14-7.78
			c0,0,17.29-7.59,17.96-7.78c0.67-0.19,17.96-7.59,18.73-7.97c0.77-0.38,10.76-4.32,14.98-6.82c4.23-2.5,6.63-2.4,6.63-2.4
			l4.21,11.93c0,0-0.65,10.35-21.03,29.12c-20.38,18.77-56.3,52.47-56.3,52.47l-28.25,26.44c0,0-4.74,5.15-8.54-1.2
			c-3.8-6.35-27.76-48.25-27.76-48.25s-2.31-3.78,3.3-6.81S150,339.02,150,339.02z"/>
	</g>
	<g class="st0">
		<path class="st1" d="M112.53,145.81l7.33,50.01c0,0,12.78,70.14,13.47,79.81c0.69,9.67,0.58,21.66,0.58,21.66l-0.29,16.76
			c0,0-0.57,4.73,1.43,4.73s1.43,0.43,11.03-4.44s27.22-14.9,27.22-14.9s22.06-10.89,24.21-11.6c0,0,13.32-6.88,16.05-7.74
			c2.72-0.86,27.65-12.18,29.23-12.32c0,0,22.49-9.89,23.64-10.89c1.15-1,6.88-2.87,5.3-8.45s-18.93-72.61-19.6-75.09
			c-3.53-13.01-14-52.18-14-52.18l-16.06-62.89c0,0-0.32-4.2-4.85-6.46c-2.91-1.62-7.76-0.97-7.76-0.97l-43.3,4.52l-56.23,5.49
			c0,0-5.49,0.65-7.11,3.55s-1.62,1.29,1.29,21.33C107.04,105.77,112.53,145.81,112.53,145.81z"/>
	</g>
	<g class="st0">
		<path class="st1" d="M65.55,367.96c0,0,31.87-22.92,39.3-27.72c7.42-4.8,6.33-13.75,6.33-13.75s0-10.7,0.22-26.63
			s-3.49-31.87-3.49-31.87l-5.46-28.82c0,0-2.18-12.66-3.06-19.65c-0.87-6.99-1.75-14.19-3.06-19.43
			c-1.31-5.24-10.48-3.06-10.48-3.06l-80.9,4.81c0,0-29.61,1.04-37.4,10.39s-22.34,37.4-22.34,37.4s-7.27,14.54-19.22,18.7
			c-11.95,4.16-11.95,19.74-11.95,19.74s-2.6,55.58,2.6,90.38c5.19,34.8,54.02,55.58,54.02,55.58L65.55,367.96z"/>
	</g>
	<path class="st2" d="M265.75,144.71"/>
	<g class="st0">
		<path class="st1" d="M285.2,148.58l-7.04,2.35c0,0-3.72,1.17-2.35,5.87c1.37,4.69,6.65,25.42,6.65,25.42l9.39,36.96l6.06,20.34
			c0,0,3.72,5.48,8.6,4.89c0,0,9.41-4.45,10.59-5.04c1.18-0.59,12.97-7.96,16.95-11.94c3.98-3.98,12.84-14.77,15.07-16.45
			c2.24-1.68,19.37-17.88,19.37-17.88s10.43-8.76,11.36-11.92c0.93-3.17,3.17-7.83,6.31-10.66c0,0,8.4-8.9,8.9-9.21
			c0.51-0.3,13.76-12.75,13.76-12.75l16.61-15.55c0,0,15.46-12.4,15.61-16.53c0.15-4.13,0.77-6.89-3.67-6.12s-14.54,2.75-28.92,6.27
			c-14.38,3.52-44.07,11.63-44.07,11.63l-39.63,10.25L285.2,148.58z"/>
	</g>
	<path class="st3" d="M148.62,460.99c0,0,75.2-73.34,77.38-75.86c2.19-2.53,29.31-29.14,29.31-29.14l26.12-25.67l24.05-23.45
		l24.96-24.35l34.94-34.49l34.04-33.43l32.52-31.92l18.91-18.46c0,0,90.04-88.37,93.96-91.73S621.6-2.33,621.6-2.33"/>
	<g class="st0">
		<path class="st1" d="M451.02,202.33L639.91,23.89c0,0,7.55-8.43,15.4-7.26c0,0,6.39,0.29,6.39,6.68s-2.32,45.61-2.32,45.61
			l-5.81,93.26c0,0,0.58,8.72-4.36,9.59c-4.94,0.87-82.07,4.94-137.92,18.78S451.02,202.33,451.02,202.33z"/>
	</g>
	<g class="st0">
		<text transform="matrix(0.7193 -0.6947 0.6947 0.7193 201.7752 396.4207)" class="st4 st5 st6">都島通</text>
	</g>
	<g class="st0">
		
			<rect x="395.82" y="129.02" transform="matrix(0.7193 -0.6947 0.6947 0.7193 24.5857 360.8521)" class="st7" width="126.09" height="41.95"/>
		<path d="M489.59,93.94l26.36,27.3l-87.82,84.81l-26.36-27.3L489.59,93.94 M489.69,88.29l-2.88,2.78l-87.82,84.81l-2.88,2.78
			l2.78,2.88l26.36,27.3l2.78,2.88l2.88-2.78l87.82-84.81l2.88-2.78l-2.78-2.88l-26.36-27.3L489.69,88.29L489.69,88.29z"/>
	</g>
	<g class="st0">
		<text transform="matrix(0.7193 -0.6947 0.6947 0.7193 427.8358 193.236)" class="st8 st5 st9">中崎町駅</text>
	</g>
	<path class="st10" d="M416.76,35.58"/>
	<g class="st0">
		<path class="st1" d="M389.51,42.41l63.34-16.98c0,0,36.82-9.73,48.26-12.78s12.21-3.82,16.22-3.05c4.01,0.76,4.39,2.1,8.58,10.49
			c4.2,8.39,0.19,10.3,0.19,10.3l-16.6,15.45c0,0-44.31,41.35-48.12,44.74c-3.8,3.39-18.84,4.94-18.84,4.94s-3.84,0.58-12.08,1.73
			s-34.72,8.63-34.72,8.63l-65.21,16.88c0,0-42.39,11.12-48.91,12.66c-6.52,1.53-6.9,1.15-9.78,0c-2.88-1.15-3.45-6.14-3.45-6.14
			l-11.7-45.46c0,0-0.82-4.44,0.39-5.65c1.21-1.21,1.81-2.41,6.94-3.32c5.13-0.91,33.5-8.45,33.5-8.45l44.06-11.77L389.51,42.41z"/>
	</g>
	<path class="st11" d="M548.55,202.84"/>
	<polygon class="st12" points="143.47,267.86 190.89,259.95 198.01,251.26 193,229.39 173.5,233.08 170.34,215.17 134.25,220.96 
		141.63,268.12 	"/>
	<g class="st0">
		<path class="st1" d="M342.75,344.12c0,0-4.52-10.12-6.89-13.13c-2.37-3.01-4.52-9.47-0.43-18.09
			c4.09-8.61,16.79-20.89,16.79-20.89l31.2-28.4l28.77-26.31c0,0,8.22-7.95,12.06-8.77c0,0,6.58-2.19,14.25-2.19
			c7.67,0,19.73-3.29,19.73-3.29l19.46-5.48c0,0,3.29-1.37,6.58-0.55c0,0,1.64-0.27,2.74,4.93c1.1,5.21,5.21,26.03,5.21,26.03
			l5.79,28.68l3.07,16.6c0,0,1.95,5.85-1.67,10.87s-9.48,14.21-8.92,17.84c0,0-0.16,5.41-2.79,6.2c-2.63,0.79-4.34,0.26-6.7-0.26
			s-14.2,0.39-20.24,10.38c-2.5,3.68-3.68,6.05-3.55,13.8c0.13,7.76,3.94,33.25,3.94,33.25l1.58,13.28c0,0,1.31,2.89-1.45,4.07
			c-2.76,1.18-47.45,14.46-47.45,14.46s-41.42,13.58-42.34,11.75s-0.64-0.55-4.22-11.02C363.67,407.42,344.36,347.11,342.75,344.12z
			"/>
	</g>
	<g class="st0">
		<path class="st1" d="M281.77,381.87c0.54-1.75,4.19-16.49,7.07-21.72c2.88-5.23,9.16-14.13,15.44-13.87
			c6.28,0.26,10.21,3.14,17.53,20.15c7.33,17.01,11.25,31.14,11.25,31.14s11.55,38.19,15.26,46.77
			c3.71,8.57-117.47,3.48-117.47,3.48l1.44-1.92c0,0,31.43-26.77,34.36-30.63c0,0,3.6-3.46,5.73-8.79
			C274.5,401.15,280.52,385.86,281.77,381.87z"/>
	</g>
	<g class="st0">
		<path class="st1" d="M247.45,380.5l22.24-19.77c0,0-7.14,30.47-14.83,37.61c0,0-1.37,0.27-3.84-3.02c0,0-8.65-9.58-5.5-12.47
			C248.67,379.96,247.45,380.5,247.45,380.5z"/>
	</g>
	<g class="st0">
		<path class="st1" d="M521.24,280.04c0,0-3.84-24.56-6.52-33.39c-2.69-8.83-6.91-35.69-6.91-35.69s-0.85-4.18,5.51-5.7
			c6.36-1.52,55.6-11.95,87.63-13.86l41.99-3.5c0,0,7.33-1.53,6.41,6.41c-0.92,7.94-3.97,40.31-0.61,58.33
			c3.36,18.02,5.19,23.21-0.92,23.82c-6.11,0.61-116.35,14.66-119.1,14.96C525.97,291.73,523.23,291.87,521.24,280.04z"/>
	</g>
	<path class="st2" d="M76.28,68.02l14.5,94.71l0.95,6.15c0,0,0.38,3.26-0.33,3.75c0.49-0.11-1.57,1.79-2.99,1.9
		c-1.41,0.11-35.25,2.95-38.33,4.18c-3.08,1.23-5.11,1.85-10.93,2.2c-5.82,0.35-11.99,1.06-14.28-1.32s-2.61-5.21-3.06-11.12
		s-3.23-33.24-3.23-33.24l-4.8-50.08l-1-13.83c0,0-0.37-2.84,0.96-4.05c0,0,1.73-2.05,4.42-2.41s23.99-2.17,23.99-2.17l26.22-2.65
		c0,0,4.86-0.35,5.9,2.17C74.26,62.22,75.52,63.67,76.28,68.02z"/>
	<g class="st0">
		<path class="st1" d="M150.54,421.19c0.54-2.17-1.65-5.33-1.65-5.33l-28.12-48.9c0,0-1.84-3.68-3.49-3.68
			c-1.65,0-1.65-0.55-8.27,4.04l-127.75,90.99l115.03,13.31l0.92-0.17C97.2,471.47,149.27,426.25,150.54,421.19z"/>
	</g>
	<g class="st0">
		<rect x="122.42" y="28.49" class="st13" width="7.14" height="0"/>
	</g>
	<g class="st0">
	</g>
	<path class="st14" d="M150.79,227.23c1.07-0.31,1.69-3.37,1.38-2.15c0.31-4.75,5.21-10.12,5.21-10.12s12.88-11.5,9.2-24.69
		c-0.92-1.53-2.91-10.74-15.03-11.96l-2.17-0.02c-12.12,1.23-14.11,10.43-15.03,11.96c-3.68,13.19,9.2,24.69,9.2,24.69
		s4.91,5.37,5.21,10.12c-0.31-1.23,0.31,1.84,1.38,2.15L150.79,227.23z"/>
	<circle class="st15" cx="150.58" cy="195.34" r="6.16"/>
	<g class="st0">
		<path class="st1" d="M220.2-56.71L246.5,47.5c0,0,1.97,8.67,4.22,10.04s6.25-0.25,7.25-0.37s26.49-7.12,26.49-7.12l89.04-23.17
			l87.27-23.42l49.71-13.48c0,0,4.16-1.23,2.72-3.82c-1.43-2.58-8.25-15.88-8.25-15.88L485.5-68.88l-3.38-7.59
			c0,0-0.94-2.82-2.01-2.95c-1.07-0.13-1.34-0.4-10.33,2.28s-27.36,7.78-27.36,7.78s-5.1,1.34-7.38,0.54
			c-2.28-0.8-2.68,0-11.8-22.27c-9.12-22.27-16.77-39.7-16.77-39.7s-0.68-2.32-3.73-2.15c0,0-2.46-0.07-5.83,1.44
			c-3.37,1.51-47.04,21.37-92.35,33.94l-84.12,24.62c0,0-4.17,1.59-3.42,4.26S220.2-56.71,220.2-56.71z"/>
	</g>
	<g class="st0">
		<path class="st1" d="M204.89,18.91c0,0-99.39,10.18-102.07,10.45c-2.68,0.27-6.07,1.01-7.06-0.9c-0.99-1.92-0.5-2.13-0.92-12.49
			c-0.43-10.36-3.08-49.8-3.08-49.8s-2.6-42.68-1.24-51.15c1.35-8.47,0.45-29.81,0.45-29.81l81.99,0.5c0,0,16.26,39.27,19.13,51.77
			c2.87,12.49,8.19,28.46,8.6,30.3c0.41,1.84,10.44,41.97,10.44,41.97s1.72,6.26,0.68,6.74C211.81,16.49,210.7,18.2,204.89,18.91z"
			/>
	</g>
	<path class="st16" d="M212.55,33.68"/>
	<g class="st0">
		<path class="st1" d="M68.86-112.59c0,0,0,25.5,2.6,69.68c2.6,44.18,3.25,65.29,3.25,65.29s0.27,7.09-0.87,8.15
			c0,0-2.21,2.37-7.69,2.7s-43.26,4.22-43.26,4.22s-63.95,4.38-73.17,6.25c0,0-21.49,4.17-26.7-0.26c0,0-1.55-0.78-1.88-4.43
			s-2.66-26.05-2.66-26.05l-7.13-75.33l-3.57-45.75c0,0-0.84-5.25,2.52-5.88C-86.35-114.62,68.86-112.59,68.86-112.59z"/>
	</g>
	<path class="st2" d="M551.54-1.66l18.34-0.67c0,0,4.61-0.22,5.73,1.88s1.35,5.23,0,6.67c-1.35,1.45-10.59,10.22-10.59,10.22
		l-10.12,9.33c0,0-3.08,2.94-8.03-0.61c-4.95-3.55-6.44-7.56-6.44-7.56s-3.22-7.47-3.78-9.14c-0.56-1.68-0.84-4.85,0.37-6.67
		s2.94-3.03,4.99-3.17S551.54-1.66,551.54-1.66z"/>
	<g class="st0">
		<path class="st1" d="M498.68,349.82c0,0,8.04,42.23,8.91,72.97s0.86,30.74,0.86,30.74l-18.39,0.29c0,0-10.68-40.64-13.5-47.69
			c-1.03-7.18-5.28-47.37-5.4-49.55c-0.11-1.03-0.11-2.76,1.15-4.71c1.26-1.95,4.94-8.27,11.71-8.5s11.25,1.61,12.4,2.18
			S498.68,349.82,498.68,349.82z"/>
	</g>
	<path class="st2" d="M531.91,315.31l115.02-14.29c0,0,5.65-1.09,7.33-0.1c1.68,0.99,2.87,5.45,2.97,6.84
		c0.1,1.39,7.04,47.66,7.04,47.66l5.45,43.3l-144.46,3.45l-8.46-54.52c0,0-2.04-12.82-0.45-16.68c1.59-3.86,4.62-10.87,7.17-12.61
		C526.05,316.63,529.76,315.7,531.91,315.31z"/>
	<path class="st2" d="M226.62,398.95l-21.6,19.97c0,0-3.34,2.72-3.24,5.02c0.1,2.3,1.88,4.7,1.88,4.7l5.75,7.05
		c0,0,0.91,1.29,2.28,1.29c1.37,0,1.45-0.23,2.06-0.61c0.61-0.38,26.81-23.53,26.81-23.53s1.57-1.21,1.4-2.54
		c-0.17-1.33,0.31-1.71-4.16-6.76c-4.47-5.05-5.26-6.18-5.26-6.18s-1.11-1.27-2.29-0.88c0,0-0.85,0.04-1.83,0.9
		C227.43,398.26,226.62,398.95,226.62,398.95z"/>
	<g class="st0">
		<path class="st17" d="M629.41,203.82c0,0-85.07,6.88-90.21,7.95c0,0-49.4,12.73-62.69,15.61c-13.29,2.88-53.34,13.46-53.34,13.46
			l-31.34,9.19c0,0-27.06,7.94-37.58,10.81s-32.45,12.13-33.87,12.55c-1.42,0.42-42.63,17.25-42.63,17.25
			c-10,3.2-109.91,57.36-109.91,57.36c-30.24,18.1-67.72,43.72-90.02,58.91C55.51,422.09,0,461.47,0,461.47"/>
		<path class="st18" d="M629.41,203.82c0,0-85.07,6.88-90.21,7.95c0,0-49.4,12.73-62.69,15.61c-13.29,2.88-53.34,13.46-53.34,13.46
			l-31.34,9.19c0,0-27.06,7.94-37.58,10.81s-32.45,12.13-33.87,12.55c-1.42,0.42-42.63,17.25-42.63,17.25
			c-10,3.2-109.91,57.36-109.91,57.36c-30.24,18.1-67.72,43.72-90.02,58.91C55.51,422.09,0,461.47,0,461.47"/>
		<g>
			<g>
				<path class="st19" d="M0,461.47c0,0,2.78-1.97,7.34-5.2"/>
				<path class="st20" d="M22.19,445.77c18.03-12.73,42.54-29.96,55.62-38.87c22.3-15.18,59.78-40.8,90.02-58.91
					c0,0,99.92-54.16,109.91-57.36c0,0,41.21-16.83,42.63-17.25s23.35-9.68,33.87-12.55c10.52-2.87,37.58-10.81,37.58-10.81
					l31.34-9.19c0,0,40.05-10.57,53.34-13.46c13.29-2.88,62.69-15.61,62.69-15.61c3.62-0.75,46.91-4.39,72.18-6.48"/>
				<path class="st19" d="M620.44,204.55c5.53-0.45,8.97-0.73,8.97-0.73"/>
			</g>
		</g>
	</g>
	<path class="st2" d="M511.11-161.41c1.32-0.33,46.8-7.05,52.08-8.37c5.29-1.32,5.62,2.2,5.62,2.2s3.53,22.01,6.43,35.6
		c2.91,13.59,7.62,44.13,7.62,44.13s4.61,25.47,7.52,38.71s-2.15,16.4-7.16,20.49s-17.22,4.78-17.22,4.78l-18.66,0.51
		c0,0-13.92,0.7-16.66,0.7s-4.18-0.97-4.18-0.97c-0.93-0.37-1.86-2.2-1.86-2.2s-4.62-9.25-5.39-10.92
		c-0.77-1.67-11.05-21.84-11.05-21.84S494.08-85.19,491-93.15c-6.68-15.16-10.53-22.99-13.23-27.62
		c-2.7-4.62-13.36-16.31-13.36-16.31"/>
	<g class="st0">
		<text transform="matrix(0.9354 -0.3535 0.3535 0.9354 269.1024 306.1465)" class="st21 st5 st22">大阪環状線</text>
		<text transform="matrix(0.9354 -0.3535 0.3535 0.9354 269.2562 306.3463)" class="st4 st5 st22">大阪環状線</text>
	</g>
</g>
</svg>
