<?xml version="1.0" encoding="utf-8"?>
<!-- Generator: Adobe Illustrator 24.2.3, SVG Export Plug-In . SVG Version: 6.00 Build 0)  -->
<svg version="1.1" id="_x31_0" xmlns="http://www.w3.org/2000/svg" xmlns:xlink="http://www.w3.org/1999/xlink" x="0px" y="0px"
	 viewBox="0 0 50 50" style="enable-background:new 0 0 50 50;" xml:space="preserve">
<style type="text/css">
	.st0{fill:#6B6B6B;}
</style>
<g>
	<path class="st0" d="M25,0C11.2,0,0,11.2,0,25s11.2,25,25,25s25-11.2,25-25S38.8,0,25,0z M25,43.8C14.7,43.8,6.2,35.3,6.2,25
		S14.7,6.2,25,6.2S43.8,14.7,43.8,25S35.3,43.8,25,43.8z"/>
	<path class="st0" d="M38.1,24.3l-12.1-9.2c-0.6-0.4-1.4,0-1.4,0.7v3.9c0,0.5-0.4,0.9-0.9,0.9H12.5c-0.5,0-0.9,0.4-0.9,0.9v7
		c0,0.5,0.4,0.9,0.9,0.9h11.2c0.5,0,0.9,0.4,0.9,0.9v3.9c0,0.7,0.8,1.1,1.4,0.7l12.1-9.2C38.5,25.4,38.5,24.6,38.1,24.3z"/>
</g>
</svg>
